<svg width="116" height="28" viewBox="0 0 116 28" fill="none" xmlns="http://www.w3.org/2000/svg">
<g clip-path="url(#clip0_157_994)">
<path d="M32.7585 5.27272H35.0341L37.4375 11.1364H37.5398L39.9432 5.27272H42.2188V14H40.429V8.31959H40.3565L38.098 13.9574H36.8793L34.6207 8.29829H34.5483V14H32.7585V5.27272ZM47.9023 11.2131V7.45454H49.7177V14H47.9748V12.8111H47.9066C47.7589 13.1946 47.5131 13.5028 47.1694 13.7358C46.8285 13.9687 46.4123 14.0852 45.9208 14.0852C45.4833 14.0852 45.0984 13.9858 44.766 13.7869C44.4336 13.5881 44.1737 13.3054 43.9862 12.9389C43.8015 12.5724 43.7077 12.1335 43.7049 11.6222V7.45454H45.5202V11.2983C45.5231 11.6847 45.6268 11.9901 45.8313 12.2145C46.0359 12.4389 46.31 12.5511 46.6538 12.5511C46.8725 12.5511 47.0771 12.5014 47.2674 12.402C47.4577 12.2997 47.6112 12.1491 47.7276 11.9503C47.8469 11.7514 47.9052 11.5057 47.9023 11.2131ZM56.6158 9.32101L54.9538 9.42329C54.9254 9.28124 54.8643 9.1534 54.7706 9.03976C54.6768 8.92329 54.5533 8.83096 54.3999 8.76277C54.2493 8.69175 54.0689 8.65624 53.8587 8.65624C53.5774 8.65624 53.3402 8.7159 53.147 8.83522C52.9538 8.95169 52.8572 9.10794 52.8572 9.30397C52.8572 9.46022 52.9197 9.59232 53.0447 9.70027C53.1697 9.80823 53.3842 9.89488 53.6882 9.96022L54.8729 10.1989C55.5092 10.3295 55.9837 10.5398 56.2962 10.8295C56.6087 11.1193 56.7649 11.5 56.7649 11.9716C56.7649 12.4006 56.6385 12.777 56.3857 13.1008C56.1357 13.4247 55.7919 13.6776 55.3544 13.8594C54.9197 14.0383 54.4183 14.1278 53.8501 14.1278C52.9837 14.1278 52.2933 13.9474 51.7791 13.5866C51.2678 13.223 50.968 12.7287 50.88 12.1037L52.6655 12.0099C52.7195 12.2741 52.8501 12.4758 53.0575 12.6151C53.2649 12.7514 53.5305 12.8196 53.8544 12.8196C54.1726 12.8196 54.4283 12.7585 54.6214 12.6364C54.8175 12.5114 54.9169 12.3508 54.9197 12.1548C54.9169 11.9901 54.8473 11.8551 54.7109 11.75C54.5746 11.642 54.3643 11.5597 54.0803 11.5028L52.9467 11.277C52.3075 11.1491 51.8317 10.9276 51.5192 10.6122C51.2095 10.2969 51.0547 9.89488 51.0547 9.40624C51.0547 8.98579 51.1683 8.62357 51.3956 8.31959C51.6257 8.01561 51.9482 7.78124 52.3629 7.61647C52.7805 7.45169 53.2692 7.36931 53.8288 7.36931C54.6555 7.36931 55.3061 7.54402 55.7805 7.89346C56.2578 8.24289 56.5362 8.71874 56.6158 9.32101ZM59.7234 10.2159V14H57.908V5.27272H59.6722V8.60937H59.7489C59.8967 8.223 60.1353 7.92044 60.4648 7.70169C60.7944 7.4801 61.2077 7.36931 61.7049 7.36931C62.1594 7.36931 62.5558 7.46874 62.8938 7.6676C63.2347 7.86363 63.4989 8.1463 63.6864 8.51561C63.8768 8.88209 63.9705 9.32101 63.9677 9.83238V14H62.1523V10.1562C62.1552 9.75283 62.0529 9.43891 61.8455 9.21448C61.641 8.99005 61.354 8.87783 60.9847 8.87783C60.7376 8.87783 60.5188 8.93039 60.3285 9.0355C60.141 9.14061 59.9933 9.29402 59.8853 9.49573C59.7802 9.69459 59.7262 9.93465 59.7234 10.2159Z" fill="#F9D501"/>
<path d="M65.4304 14V5.27272H67.2756V8.87357H71.0213V5.27272H72.8622V14H71.0213V10.3949H67.2756V14H65.4304ZM78.5469 11.2131V7.45454H80.3622V14H78.6193V12.8111H78.5511C78.4034 13.1946 78.1577 13.5028 77.8139 13.7358C77.473 13.9687 77.0568 14.0852 76.5653 14.0852C76.1278 14.0852 75.7429 13.9858 75.4105 13.7869C75.0781 13.5881 74.8182 13.3054 74.6307 12.9389C74.446 12.5724 74.3523 12.1335 74.3494 11.6222V7.45454H76.1648V11.2983C76.1676 11.6847 76.2713 11.9901 76.4759 12.2145C76.6804 12.4389 76.9545 12.5511 77.2983 12.5511C77.517 12.5511 77.7216 12.5014 77.9119 12.402C78.1023 12.2997 78.2557 12.1491 78.3722 11.9503C78.4915 11.7514 78.5497 11.5057 78.5469 11.2131ZM81.8484 14V5.27272H83.6637V8.55397H83.7191C83.7987 8.37783 83.9137 8.19885 84.0643 8.01704C84.2177 7.83238 84.4165 7.67897 84.6609 7.55681C84.908 7.43181 85.2148 7.36931 85.5813 7.36931C86.0586 7.36931 86.4989 7.49431 86.9023 7.74431C87.3058 7.99147 87.6282 8.36505 87.8697 8.86505C88.1112 9.36221 88.2319 9.98579 88.2319 10.7358C88.2319 11.4659 88.114 12.0824 87.8782 12.5852C87.6452 13.0852 87.3271 13.4645 86.9237 13.723C86.5231 13.9787 86.0742 14.1065 85.5771 14.1065C85.2248 14.1065 84.9251 14.0483 84.6779 13.9318C84.4336 13.8153 84.2333 13.669 84.0771 13.4929C83.9208 13.3139 83.8015 13.1335 83.7191 12.9517H83.6381V14H81.8484ZM83.6254 10.7273C83.6254 11.1165 83.6793 11.456 83.7873 11.7457C83.8952 12.0355 84.0515 12.2614 84.256 12.4233C84.4606 12.5824 84.7092 12.6619 85.0018 12.6619C85.2972 12.6619 85.5472 12.581 85.7518 12.419C85.9563 12.2543 86.1112 12.027 86.2163 11.7372C86.3242 11.4446 86.3782 11.1079 86.3782 10.7273C86.3782 10.3494 86.3256 10.017 86.2205 9.7301C86.1154 9.44317 85.9606 9.21874 85.756 9.05681C85.5515 8.89488 85.3001 8.81391 85.0018 8.81391C84.7063 8.81391 84.4563 8.89204 84.2518 9.04829C84.0501 9.20454 83.8952 9.42613 83.7873 9.71306C83.6793 9.99999 83.6254 10.3381 83.6254 10.7273ZM93.7589 14H91.7816L94.7944 5.27272H97.1722L100.181 14H98.2035L96.0174 7.26704H95.9492L93.7589 14ZM93.6353 10.5696H98.3058V12.0099H93.6353V10.5696ZM101.197 16.4545V7.45454H102.987V8.55397H103.068C103.147 8.37783 103.262 8.19885 103.413 8.01704C103.566 7.83238 103.765 7.67897 104.01 7.55681C104.257 7.43181 104.564 7.36931 104.93 7.36931C105.407 7.36931 105.848 7.49431 106.251 7.74431C106.654 7.99147 106.977 8.36505 107.218 8.86505C107.46 9.36221 107.581 9.98579 107.581 10.7358C107.581 11.4659 107.463 12.0824 107.227 12.5852C106.994 13.0852 106.676 13.4645 106.272 13.723C105.872 13.9787 105.423 14.1065 104.926 14.1065C104.573 14.1065 104.274 14.0483 104.027 13.9318C103.782 13.8153 103.582 13.669 103.426 13.4929C103.269 13.3139 103.15 13.1335 103.068 12.9517H103.012V16.4545H101.197ZM102.974 10.7273C102.974 11.1165 103.028 11.456 103.136 11.7457C103.244 12.0355 103.4 12.2614 103.605 12.4233C103.809 12.5824 104.058 12.6619 104.35 12.6619C104.646 12.6619 104.896 12.581 105.1 12.419C105.305 12.2543 105.46 12.027 105.565 11.7372C105.673 11.4446 105.727 11.1079 105.727 10.7273C105.727 10.3494 105.674 10.017 105.569 9.7301C105.464 9.44317 105.309 9.21874 105.105 9.05681C104.9 8.89488 104.649 8.81391 104.35 8.81391C104.055 8.81391 103.805 8.89204 103.6 9.04829C103.399 9.20454 103.244 9.42613 103.136 9.71306C103.028 9.99999 102.974 10.3381 102.974 10.7273ZM108.791 16.4545V7.45454H110.581V8.55397H110.662C110.741 8.37783 110.856 8.19885 111.007 8.01704C111.16 7.83238 111.359 7.67897 111.603 7.55681C111.85 7.43181 112.157 7.36931 112.524 7.36931C113.001 7.36931 113.441 7.49431 113.845 7.74431C114.248 7.99147 114.571 8.36505 114.812 8.86505C115.054 9.36221 115.174 9.98579 115.174 10.7358C115.174 11.4659 115.056 12.0824 114.821 12.5852C114.588 13.0852 114.269 13.4645 113.866 13.723C113.466 13.9787 113.017 14.1065 112.519 14.1065C112.167 14.1065 111.867 14.0483 111.62 13.9318C111.376 13.8153 111.176 13.669 111.019 13.4929C110.863 13.3139 110.744 13.1335 110.662 12.9517H110.606V16.4545H108.791ZM110.568 10.7273C110.568 11.1165 110.622 11.456 110.73 11.7457C110.838 12.0355 110.994 12.2614 111.198 12.4233C111.403 12.5824 111.652 12.6619 111.944 12.6619C112.24 12.6619 112.49 12.581 112.694 12.419C112.899 12.2543 113.054 12.027 113.159 11.7372C113.267 11.4446 113.321 11.1079 113.321 10.7273C113.321 10.3494 113.268 10.017 113.163 9.7301C113.058 9.44317 112.903 9.21874 112.698 9.05681C112.494 8.89488 112.242 8.81391 111.944 8.81391C111.649 8.81391 111.399 8.89204 111.194 9.04829C110.992 9.20454 110.838 9.42613 110.73 9.71306C110.622 9.99999 110.568 10.3381 110.568 10.7273Z" fill="#008000"/>
</g>
<path d="M27.3 14C27.6866 14 28.0018 13.6864 27.9825 13.3003C27.8096 9.84202 26.3596 6.56061 23.8995 4.10051C21.274 1.475 17.713 2.80326e-07 14 0C10.287 -2.80326e-07 6.72602 1.475 4.10051 4.1005C1.6404 6.56061 0.19041 9.84201 0.0174806 13.3003C-0.00182715 13.6864 0.313401 14 0.7 14C1.0866 14 1.39797 13.6863 1.41943 13.3003C1.59098 10.2136 2.89295 7.28795 5.09046 5.09045C7.45341 2.7275 10.6583 1.4 14 1.4C17.3417 1.4 20.5466 2.7275 22.9095 5.09046C25.107 7.28796 26.409 10.2136 26.5806 13.3003C26.602 13.6863 26.9134 14 27.3 14Z" fill="#F9D501"/>
<path d="M24.7619 14.0953C25.0775 14.0953 25.3348 13.8393 25.3191 13.5241C25.1779 10.701 23.9942 8.0223 21.986 6.01405C19.8427 3.87078 16.9358 2.6667 13.9048 2.6667C10.8737 2.6667 7.96682 3.87078 5.82355 6.01405C3.8153 8.0223 2.63163 10.701 2.49047 13.5241C2.4747 13.8393 2.73203 14.0953 3.04763 14.0953C3.36322 14.0953 3.6174 13.8392 3.63491 13.5241C3.77496 11.0043 4.83779 8.61605 6.63167 6.82217C8.56062 4.89323 11.1768 3.80956 13.9048 3.80956C16.6327 3.80956 19.2489 4.89323 21.1779 6.82218C22.9717 8.61605 24.0346 11.0043 24.1746 13.5241C24.1921 13.8392 24.4463 14.0953 24.7619 14.0953Z" fill="#A0B701"/>
<path d="M22.5952 14C22.8451 14 23.0488 13.7973 23.0363 13.5478C22.9246 11.3129 21.9875 9.19223 20.3976 7.60236C18.7009 5.90561 16.3996 4.95238 14 4.95238C11.6004 4.95238 9.29914 5.90561 7.60238 7.60236C6.01251 9.19223 5.07545 11.3129 4.96369 13.5478C4.95121 13.7973 5.15493 14 5.40477 14C5.65462 14 5.85584 13.7973 5.86971 13.5478C5.98058 11.553 6.82199 9.66228 8.24214 8.24213C9.76923 6.71504 11.8404 5.85714 14 5.85714C16.1596 5.85714 18.2308 6.71505 19.7579 8.24213C21.178 9.66228 22.0194 11.553 22.1303 13.5478C22.1442 13.7973 22.3454 14 22.5952 14Z" fill="#599F01"/>
<path d="M20.6048 14C20.7967 14 20.9533 13.8443 20.9437 13.6525C20.8578 11.9352 20.1378 10.3056 18.9161 9.08393C17.6122 7.7801 15.8439 7.04762 14 7.04762C12.1561 7.04762 10.3877 7.7801 9.08391 9.08393C7.86223 10.3056 7.14216 11.9352 7.05629 13.6525C7.0467 13.8443 7.20324 14 7.39523 14C7.58721 14 7.74184 13.8442 7.75249 13.6525C7.83769 12.1197 8.48424 10.6668 9.57552 9.57554C10.749 8.40209 12.3405 7.74286 14 7.74286C15.6595 7.74286 17.251 8.40209 18.4245 9.57554C19.5157 10.6668 20.1623 12.1197 20.2475 13.6525C20.2581 13.8442 20.4128 14 20.6048 14Z" fill="#148701"/>
<defs>
<clipPath id="clip0_157_994">
<rect width="84" height="12" fill="white" transform="translate(32 5)"/>
</clipPath>
</defs>
</svg>
